HIERARCHY
ROOT Hips
{
	OFFSET -14.64140 90.27770 -84.91600
	CHANNELS 6 Xposition Yposition Zposition Zrotation Xrotation Yrotation
	JOINT Spine
	{
		OFFSET 0.00000 13.20850 -1.60436
		CHANNELS 3 Zrotation Xrotation Yrotation
		JOINT Spine1
		{
			OFFSET 0.00000 8.61716 0.00000
			CHANNELS 3 Zrotation Xrotation Yrotation
			JOINT Spine2
			{
				OFFSET 0.00000 8.61717 0.00000
				CHANNELS 3 Zrotation Xrotation Yrotation
				JOINT Spine3
				{
					OFFSET 0.00000 8.61717 0.00000
					CHANNELS 3 Zrotation Xrotation Yrotation
					JOINT Neck
					{
						OFFSET 0.00000 11.07920 1.10792
						CHANNELS 3 Zrotation Xrotation Yrotation
						JOINT Neck1
						{
							OFFSET 0.00000 7.08032 0.00000
							CHANNELS 3 Zrotation Xrotation Yrotation
							JOINT Head
							{
								OFFSET 0.00000 7.08031 0.00000
								CHANNELS 3 Zrotation Xrotation Yrotation
								End site
								{
									OFFSET 0.00000 0.00000 0.00000
								}
							}
						}
					}
					JOINT RightShoulder
					{
						OFFSET -0.01000 7.91373 5.19711
						CHANNELS 3 Zrotation Xrotation Yrotation
						JOINT RightArm
						{
							OFFSET -18.41580 0.00000 0.00000
							CHANNELS 3 Zrotation Xrotation Yrotation
							JOINT RightForeArm
							{
								OFFSET -29.11090 0.00000 0.00000
								CHANNELS 3 Zrotation Xrotation Yrotation
								JOINT RightHand
								{
									OFFSET -24.65040 0.00000 0.00000
									CHANNELS 3 Zrotation Xrotation Yrotation
									JOINT RightHandThumb1
									{
										OFFSET -5.35114 -0.85590 3.97906
										CHANNELS 3 Zrotation Xrotation Yrotation
										JOINT RightHandThumb2
										{
											OFFSET -4.52789 0.00000 0.00000
											CHANNELS 3 Zrotation Xrotation Yrotation
											JOINT RightHandThumb3
											{
												OFFSET -2.46976 0.00000 0.00000
												CHANNELS 3 Zrotation Xrotation Yrotation
												End site
												{
													OFFSET 0.00000 0.00000 0.00000
												}
											}
										}
									}
									JOINT RightHandIndex1
									{
										OFFSET -14.26970 0.00000 2.88139
										CHANNELS 3 Zrotation Xrotation Yrotation
										JOINT RightHandIndex2
										{
											OFFSET -5.48836 0.00000 0.00000
											CHANNELS 3 Zrotation Xrotation Yrotation
											JOINT RightHandIndex3
											{
												OFFSET -3.01859 0.00000 0.00000
												CHANNELS 3 Zrotation Xrotation Yrotation
												End site
												{
													OFFSET 0.00000 0.00000 0.00000
												}
											}
										}
									}
									JOINT RightHandMiddle1
									{
										OFFSET -14.26970 0.00000 -0.09147
										CHANNELS 3 Zrotation Xrotation Yrotation
										JOINT RightHandMiddle2
										{
											OFFSET -6.17441 0.00000 0.00000
											CHANNELS 3 Zrotation Xrotation Yrotation
											JOINT RightHandMiddle3
											{
												OFFSET -3.56743 0.00000 0.00000
												CHANNELS 3 Zrotation Xrotation Yrotation
												End site
												{
													OFFSET 0.00000 0.00000 0.00000
												}
											}
										}
									}
									JOINT RightHandRing1
									{
										OFFSET -12.69180 0.00000 -3.06433
										CHANNELS 3 Zrotation Xrotation Yrotation
										JOINT RightHandRing2
										{
											OFFSET -5.62556 0.00000 0.00000
											CHANNELS 3 Zrotation Xrotation Yrotation
											JOINT RightHandRing3
											{
												OFFSET -3.56744 0.00000 0.00000
												CHANNELS 3 Zrotation Xrotation Yrotation
												End site
												{
													OFFSET 0.00000 0.00000 0.00000
												}
											}
										}
									}
									JOINT RightHandPinky1
									{
										OFFSET -11.11390 0.00000 -6.03719
										CHANNELS 3 Zrotation Xrotation Yrotation
										JOINT RightHandPinky2
										{
											OFFSET -4.52789 0.00000 0.00000
											CHANNELS 3 Zrotation Xrotation Yrotation
											JOINT RightHandPinky3
											{
												OFFSET -2.46976 0.00000 0.00000
												CHANNELS 3 Zrotation Xrotation Yrotation
												End site
												{
													OFFSET 0.00000 0.00000 0.00000
												}
											}
										}
									}
								}
							}
						}
					}
					JOINT LeftShoulder
					{
						OFFSET 0.01000 7.91373 5.19711
						CHANNELS 3 Zrotation Xrotation Yrotation
						JOINT LeftArm
						{
							OFFSET 18.41580 0.00000 0.00000
							CHANNELS 3 Zrotation Xrotation Yrotation
							JOINT LeftForeArm
							{
								OFFSET 29.11090 0.00000 0.00000
								CHANNELS 3 Zrotation Xrotation Yrotation
								JOINT LeftHand
								{
									OFFSET 24.65040 0.00000 0.00000
									CHANNELS 3 Zrotation Xrotation Yrotation
									JOINT LeftHandThumb1
									{
										OFFSET 5.35114 -0.85590 3.97906
										CHANNELS 3 Zrotation Xrotation Yrotation
										JOINT LeftHandThumb2
										{
											OFFSET 4.52789 0.00000 0.00000
											CHANNELS 3 Zrotation Xrotation Yrotation
											JOINT LeftHandThumb3
											{
												OFFSET 2.46977 0.00000 0.00000
												CHANNELS 3 Zrotation Xrotation Yrotation
												End site
												{
													OFFSET 0.00000 0.00000 0.00000
												}
											}
										}
									}
									JOINT LeftHandIndex1
									{
										OFFSET 14.26970 0.00000 2.88139
										CHANNELS 3 Zrotation Xrotation Yrotation
										JOINT LeftHandIndex2
										{
											OFFSET 5.48836 0.00000 0.00000
											CHANNELS 3 Zrotation Xrotation Yrotation
											JOINT LeftHandIndex3
											{
												OFFSET 3.01859 0.00000 0.00000
												CHANNELS 3 Zrotation Xrotation Yrotation
												End site
												{
													OFFSET 0.00000 0.00000 0.00000
												}
											}
										}
									}
									JOINT LeftHandMiddle1
									{
										OFFSET 14.26970 0.00000 -0.09147
										CHANNELS 3 Zrotation Xrotation Yrotation
										JOINT LeftHandMiddle2
										{
											OFFSET 6.17440 0.00000 0.00000
											CHANNELS 3 Zrotation Xrotation Yrotation
											JOINT LeftHandMiddle3
											{
												OFFSET 3.56744 0.00000 0.00000
												CHANNELS 3 Zrotation Xrotation Yrotation
												End site
												{
													OFFSET 0.00000 0.00000 0.00000
												}
											}
										}
									}
									JOINT LeftHandRing1
									{
										OFFSET 12.69180 0.00000 -3.06433
										CHANNELS 3 Zrotation Xrotation Yrotation
										JOINT LeftHandRing2
										{
											OFFSET 5.62556 0.00000 0.00000
											CHANNELS 3 Zrotation Xrotation Yrotation
											JOINT LeftHandRing3
											{
												OFFSET 3.56744 0.00000 0.00000
												CHANNELS 3 Zrotation Xrotation Yrotation
												End site
												{
													OFFSET 0.00000 0.00000 0.00000
												}
											}
										}
									}
									JOINT LeftHandPinky1
									{
										OFFSET 11.11390 0.00000 -6.03719
										CHANNELS 3 Zrotation Xrotation Yrotation
										JOINT LeftHandPinky2
										{
											OFFSET 4.52789 0.00000 0.00000
											CHANNELS 3 Zrotation Xrotation Yrotation
											JOINT LeftHandPinky3
											{
												OFFSET 2.46976 0.00000 0.00000
												CHANNELS 3 Zrotation Xrotation Yrotation
												End site
												{
													OFFSET 0.00000 0.00000 0.00000
												}
											}
										}
									}
								}
							}
						}
					}
					JOINT pCube4
					{
						OFFSET 0.00000 10.91090 1.10792
						CHANNELS 3 Zrotation Xrotation Yrotation
						End site
						{
							OFFSET 0.00000 0.00000 0.00000
						}
					}
				}
			}
		}
	}
	JOINT RightUpLeg
	{
		OFFSET -9.98441 0.00000 0.00000
		CHANNELS 3 Zrotation Xrotation Yrotation
		JOINT RightLeg
		{
			OFFSET 0.00000 -42.11790 0.00000
			CHANNELS 3 Zrotation Xrotation Yrotation
			JOINT RightFoot
			{
				OFFSET 0.00000 -45.00020 -0.00001
				CHANNELS 3 Zrotation Xrotation Yrotation
				JOINT RightForeFoot
				{
					OFFSET 0.00000 -3.74820 0.00000
					CHANNELS 3 Zrotation Xrotation Yrotation
					JOINT RightToeBase
					{
						OFFSET 0.00000 0.06325 14.43120
						CHANNELS 3 Zrotation Xrotation Yrotation
						End site
						{
							OFFSET 0.00000 0.00000 0.00000
						}
					}
				}
			}
		}
	}
	JOINT LeftUpLeg
	{
		OFFSET 9.98441 0.00000 0.00000
		CHANNELS 3 Zrotation Xrotation Yrotation
		JOINT LeftLeg
		{
			OFFSET 0.00000 -42.11800 0.00000
			CHANNELS 3 Zrotation Xrotation Yrotation
			JOINT LeftFoot
			{
				OFFSET 0.00000 -45.00070 0.00000
				CHANNELS 3 Zrotation Xrotation Yrotation
				JOINT LeftForeFoot
				{
					OFFSET 0.00000 -3.74824 0.00000
					CHANNELS 3 Zrotation Xrotation Yrotation
					JOINT LeftToeBase
					{
						OFFSET 0.00000 0.06325 14.43110
						CHANNELS 3 Zrotation Xrotation Yrotation
						End site
						{
							OFFSET 0.00000 0.00000 0.00000
						}
					}
				}
			}
		}
	}
}
MOTION
Frames: 4
Frame Time: 0.050000
0.027410545900313218 -0.024858663406301013 -0.030929133272948467 -0.018094168023662868 0.007739898930559991 -0.01745073193205327 -3.735226628123529 3.0758507573420886 -0.648772335725641 -0.7878595303785104 3.3472241229749655 0.33538338041652016 -0.9666863242771089 -1.383612020876885 -2.275098168622173 -0.29529066843819424 0.41893213281439234 -0.995922998834714 -0.8610628894070651 10.457278751469353 1.5115165433150508 -0.0877186506955348 -0.8291433024970966 1.753525186952449 -0.5294627399613288 -15.778804283955882 0.23424736281621636 0.4650322059026552 0.6403823745481037 -11.391982200066625 69.13655929575276 23.706078075235585 9.0556821793751 20.58408894020706 5.857940472795443 81.82008340922684 25.642170683009464 -0.18719179687121015 -6.2817956511140025 4.562855664644482 -0.14788453662074205 -1.573101461179901 -0.0177858493889706 0.01300178190989045 -56.2005979794598 -0.0012767711089336014 -0.013627107974939502 -56.23403315625416 -38.77118062892096 -0.017750738961074406 0.009617102181494568 0.04300503029812237 -0.009239573869188781 -0.0020787398906877783 5.017429483884337e-05 0.030155731611947924 0.01304086451012184 -36.65305365113215 0.00043770743542919147 -0.0342196982876226 0.04362333498944925 -0.01492362415023148 0.019902711182932718 0.022600376668703223 0.014494370494737147 -0.03622907445373353 -19.766292740685547 0.04695743780886001 0.011389910720502217 0.03474881795356568 0.021773599829491348 0.02881539928372682 -0.02180611536126635 -0.005416406244278697 -0.03010059088280768 24.101766156402906 -0.0028300210989598744 0.03446278432565252 28.845369208502213 0.00627938932754805 -0.0030143388142537136 28.904176474062265 0.03949383753235172 0.004228710809217133 3.6095168678679697 1.1249332958236602 9.950817809554216 -62.8459949071761 26.11826548786698 -21.589428604821084 -42.121724550452164 6.486705487714445 -82.04101640181536 -16.22484011436348 1.525333475356194 -0.7527683116489803 -0.5160453458329686 0.0827258589223024 -8.157806056382007 0.03678395233387327 -0.00464203890104187 44.587025986940134 -0.029545100968114257 0.00970337836994605 44.58908778226113 12.478519956910112 0.015164541948639398 0.005596127128135257 0.020303756596981314 -0.019166515271631237 0.028625112749631327 0.019477582852800972 0.026736663446343765 0.04497677894947826 11.097830310992705 0.014846185288362856 0.004617804946547365 -0.004674875249184652 0.041097116002458675 -0.029016595546302273 -0.04513585732381764 0.03861679041322956 0.0254129742535657 4.777691358617451 0.041788561014108404 0.006382191135710143 -0.04479786312265842 -0.00784449860200088 0.029624319185399272 -0.027441157741231622 -0.010260511068263822 -0.03218739819009271 -5.628656637896433 0.006346409748341905 0.002567227610098912 -6.70447710716493 0.027881918984764047 0.00858768223983505 -6.6868690962868795 -0.007240241235237532 -0.0469390935220819 0.003583182024163744 -0.017668329173394587 -0.03907881845064739 8.00481757115303 3.471992336267232 -19.186173862251703 0.023010456286687596 10.388277159408705 0.06043997339853885 -5.628884007113714 -15.69747626892652 3.1743557161846776 0.014098531635029091 0.005111182293061468 -0.001816580589157337 -0.021464326266606194 4.689983625813253 -0.012603998888332467 12.442011911670443 -8.268693244993592 6.852921113253328 0.03853562567553946 46.34090864432365 0.03795084668691923 -4.290196545519332 -14.762119690587781 -3.8236896579196724 -0.020516483061675497 -0.03420575150800558 0.02987015897307723 -0.016342276693114947 -10.786379857481617 -0.04698550731487009 
-0.012258036062415592 0.04652045610272659 -0.018847899522127315 -0.0019125998384106923 0.047823900429492486 0.049378992544212345 -3.8253826340668233 3.0667476553003787 -0.6482730329680187 -0.8019696964645605 3.370375005434414 0.31560762598776615 -1.0007278338821601 -1.401206691513431 -1.9100386704740757 -0.33785485450407227 0.41031296215356855 -0.9664010817148296 -0.8235534907449784 10.41203444360808 1.6159693671723843 -0.10909479157692897 -0.9575819371835325 1.6705808015100547 -0.48201910938722553 -15.84519326368723 0.16073694990354878 0.4571325606873419 0.6811831614493697 -11.634696954143893 69.62659123078954 24.200229190309944 7.1093396005620635 16.410205593425868 5.707714289477769 75.36850253705049 26.102219669908187 -0.153936667686547 -5.902836306783401 4.503712746272845 -0.08333599210642322 -1.588221803486746 0.025462590879623815 0.011522467235306463 -56.19202725764586 -0.025230772349523374 -0.022202946985761456 -56.219194540578314 -38.79408995375404 -0.044069906031256455 0.011833262661939532 -0.02443143191441559 0.022314587664802914 -0.003265039902792139 -0.013161779381712632 0.027314408104583132 -0.026015574736433452 -36.692749221931884 0.0028856632907775714 0.007569584861074115 0.0018177081663480566 0.019469195613793705 0.026243482274690356 -0.039925375157135054 -0.01215855837737006 0.04380687408435481 -19.773658783385592 0.01190871799021527 0.04551942078110405 -0.017450235979671984 -0.044080495433247505 0.046178467657159133 -0.029287809766389575 -0.027178341551541817 -0.04037728084552875 24.074506439554593 0.04131176523229861 -0.021899522679785267 28.88495506288308 -0.013043543136343849 0.0273115682056729 28.858153657934004 0.005592722511151893 0.030016533400327165 3.02163409618707 0.9841546482940946 10.335458584243653 -64.84513999634207 25.92592343677937 -16.788752987627603 -39.03094022394591 6.852008549444609 -75.83480503241915 -15.83696220422623 1.9329217782424755 -0.7468378648318607 -0.437910214275649 0.048345552228713264 -8.102920099174842 0.04881441973499953 -0.029188490199848 44.57745098930419 -0.006661391421003373 -0.00686347155417794 44.51887232251438 12.468480913692614 -0.0042171398315983604 -0.007014570206611966 -0.01652198736850832 -0.019561274076828512 -0.008229213107920649 0.013771983061815839 -0.013078384399244703 -0.04611155134449195 11.104138342660814 -0.0031429537428098275 -0.012249593070222026 0.04755235163294766 -0.04498423172681828 0.011841109646809962 -0.048332552914765715 -0.04809853695885545 0.00145067490216272 4.727485445431882 0.00803611594919759 -0.040574896910596694 -0.0026221703783618597 0.015797130629415405 0.011944448422446548 0.023833756523388833 0.0032227564142485554 -0.02216737710302681 -5.6231624969423635 -0.01488908279769544 -0.0010152843674047173 -6.67596802456318 0.022509041813578354 0.025137720527476957 -6.686256318969168 0.04807392200697696 0.03374572809198716 -0.006655306876194243 0.017967015407131543 -0.019413642672112683 8.048891351942775 3.4657374454260275 -19.245360813416056 0.01899027839416039 10.398589987707105 -0.02382674195342811 -5.636201175162663 -15.675249080361581 3.1588884068186514 0.022862078917305403 -0.04149841300137462 0.013851687265470734 -0.007674947922754188 4.717142384870003 -0.03156067568186284 12.470777611074078 -8.24951284357774 6.924733355015303 -0.020464517004200364 46.40624443531754 0.01078993556470882 -4.3302152785841015 -14.771023024249716 -3.7963018148559806 -0.039618674373516856 0.00010076889847587482 0.04974674471481724 -0.0172866535277944 -10.730644310050566 -0.02398293443920485 
-0.013886276854060476 -0.01687425445865245 -0.04651952514358129 -0.008931384182261302 -0.030331115991232133 0.007251989674254575 -3.8160428926683543 3.0125018814028968 -0.620659539223053 -0.863247205163239 3.4129090142668046 0.3740411087215438 -1.0778661893794348 -1.360816594020283 -1.6468599520703935 -0.41821491418885015 0.43423614077878714 -0.9860802604463639 -0.7336428835369561 10.404498289285122 1.6066454900769702 -0.09521555251766169 -0.9582578510051729 1.4969255925821063 -0.49278148379466197 -16.00397350908606 0.14467604681102403 0.25399711109312156 0.7192941977660167 -11.847496779881125 70.05845359887881 24.606419221327673 5.48333691939696 13.073602016239814 5.197372140397822 69.91235502992868 26.589782222047358 -0.16838983549629374 -5.709856214816695 4.547700992673998 -0.10116074637081118 -1.5885387230073458 -0.047389876133427815 -0.03709542712872877 -56.25260889221011 0.01316303519982162 0.014107652539620402 -56.20124038872362 -38.76915608393027 -0.01342050214578191 0.0078049458979224245 0.047906898571456934 -0.012717572099879018 -0.032608459048837926 0.025144063349087035 -0.007301151097965428 -0.02894025206703367 -36.73485607676593 0.00814975087581203 0.009662078015471547 -0.015604299003141095 0.017844210445552615 -0.04317830583525268 0.018847754816471128 -0.03690249476101405 0.021966364154215396 -19.779938233752627 0.029055250090499765 0.032961119988370424 0.032330022521979807 -0.03823590391765625 0.030157009873379555 0.0023938480603140845 -0.013999859937336748 -0.0426978936828328 24.07811871150723 -0.040926427339204034 -0.035877755207164436 28.85353218725884 0.038699267377423595 -0.018975818500304262 28.89755936985701 0.03995415827464044 -0.00030799765231450716 2.6702824572995 0.9487969555828222 10.70070882221946 -66.57376188008254 25.752670481186573 -13.093676778987916 -37.00802887693992 6.99428866037595 -70.37070378808839 -15.666095409531023 2.15868667649453 -0.7191761360364844 -0.49912391505360726 0.044202064468189486 -8.129884118792763 0.042261320723891424 -0.048998699335564604 44.532275835980045 -0.04733204345103009 -0.02355869016791249 44.6068298570387 12.463457684278534 0.04641555782528039 -0.012584149242927476 0.04313129736064763 0.033611002867827144 0.04539809127866861 -0.04966213561676138 -0.022166514530445512 -0.013956276246554083 11.10094264136626 0.03345242898658873 0.0456590402233292 0.03729993477392458 0.016294913833036877 0.03769712920393918 -0.003335351236799099 0.005914913276646466 0.039666999165010985 4.738880805111561 -0.036536389840891983 0.022834177899600624 0.031135115569709316 0.04929513317288846 -0.0082434311311188 -0.040647173141264946 -0.009017440862900026 0.02510828814245608 -5.5715404403325675 0.0015599928933384519 0.0427884807814958 -6.689142276941398 -0.0005135051647061065 0.0007774411733182862 -6.746859762751229 -0.019840309790544085 0.008484219135253704 0.02464967791371014 0.0022795776523015037 0.028291349980388392 8.05170048880281 3.513133581618675 -19.210616255637454 -0.02597928527285908 10.415492956181668 0.0119390894437801 -5.607635274510632 -15.685279063454654 3.1972101640348654 0.001607319639647807 0.007905729869583092 -0.03368944123521896 0.02929218234004149 4.678419074621924 -0.020475636298113057 12.434968260282576 -8.24016069753288 6.898770570138091 0.02743310930315555 46.40891191508455 -0.03958061561764142 -4.308037115942224 -14.772970338147687 -3.8040686868121742 -0.005186664013965875 0.03380131068433125 0.012210492991763078 0.013366697818310829 -10.738913159654512 -0.042121752789208995 
0.003488776091445814 -0.03359680927332943 0.018604755033850968 0.027752555583987783 0.0360868078157682 0.03228562988015194 -3.7862110059591014 2.790838843567043 -0.6372215715273839 -0.8449387846733616 3.3706003722914013 0.372766399233947 -1.0530122779782198 -1.41667581039721 -1.4957330010955414 -0.4414979404354332 0.39192044646220914 -0.8991845001004402 -0.6090097647564254 10.335510379556673 1.497081964045223 -0.08083973924040462 -0.9706179450296587 1.309706619640917 -0.35944541435989996 -15.891589570936077 0.09989378984369926 -0.04999150860772035 0.8128825243914357 -12.196519660923558 70.39906155532141 24.50698776149324 4.320562356335256 9.846877889787132 3.859772682309308 66.96615356722738 26.36304148368947 -0.1964203231197937 -5.320682951541166 4.549147314301201 -0.11129905199686214 -1.629692178154207 -0.035892390173257606 -0.020047031851983393 -56.22554542353358 -0.03662473453646343 0.03394466298628535 -56.26682884761514 -38.73596980780458 0.008592639595049342 0.03063123156768929 0.014064954691988594 0.036452104964297814 0.043217628305279567 -0.005912113175479807 -0.010146664633551235 0.019375220915557614 -36.6585164398604 0.018842194766981808 0.020042350975309334 0.009648512723025821 0.020661944557388012 0.019799033811817034 -0.0042382935112848415 0.04206715954655163 -0.04596963476401247 -19.77390302359154 0.016539423799262955 -0.017512369222762725 -0.0313664605556717 -0.021471267613183014 -0.011101028796073992 0.04295515789196817 0.021540670799920524 0.037242473693120434 24.03630876168511 -0.03736877499040501 0.026869429613901794 28.83200745369006 -0.02757346393209079 0.0040563051131850755 28.851280042026772 0.024063366126356206 0.020956121641633723 2.6366848102799834 0.9838150488810466 10.889178052357746 -67.77497380458459 25.84400498125855 -10.670328057432412 -34.116240586420645 6.335952086512463 -66.55483280509664 -15.053341162568866 2.270149477395839 -0.6458478597741669 -0.4866920194870401 0.11201150991999925 -8.108089975016215 0.03594983424677815 0.01828083110400778 44.61030776453717 0.0181289714782099 -0.004872156356988257 44.60146650554912 12.4649423858467 0.04464502904173891 0.019667804234704572 -0.028857877854818012 0.006155455773094515 0.011135177207492089 -0.020617835795492093 -0.028724075026091096 0.02478670204000118 11.089509732720167 -0.022788483117283802 -0.03232337388540841 -0.04601525686701263 0.025720564154793464 0.02561301111478908 -0.0021084721247153866 0.0033302125063805177 0.0339042917546998 4.811577465317643 -0.010416994582561479 0.04191737230373101 -0.007836436696552243 -0.04051225471961651 -0.02617793597311665 -0.011160881425451262 -0.027719662652411412 -0.024613186083191914 -5.621483473204279 0.04869804444585569 -0.04113815995389045 -6.699425095323822 -0.04441845176061745 -0.0040255293076627814 -6.716196138276637 0.0014538341988090616 0.043794115569921147 0.018914103848574143 -0.04931306110385143 -0.02835248191586678 8.019646932441486 3.540609948729001 -19.17017472765972 -0.04515166498341781 10.419842022374368 -0.02138701267529283 -5.603427036761904 -15.634020561827812 3.181765372182786 -0.03444282278840392 -0.029475185564837997 -0.00323434120639025 0.0309447399551911 4.740516915611454 0.04679118696487159 12.453468276073759 -8.238535382931447 6.890373872392934 -0.030900188286015505 46.378580692981416 -0.002662451166834944 -4.349784045009189 -14.71289390934289 -3.8366604377356404 0.0021725215266123325 -0.022714279438559668 -0.020589256944746368 0.011741759495066182 -10.788263399100076 0.04800514404448843 
